<?xml version="1.0" standalone="no"?>
<!DOCTYPE svg PUBLIC "-//W3C//DTD SVG 20010904//EN"
 "http://www.w3.org/TR/2001/REC-SVG-20010904/DTD/svg10.dtd">
<svg version="1.0" xmlns="http://www.w3.org/2000/svg"
 width="1024.000000pt" height="1024.000000pt" viewBox="0 0 1024.000000 1024.000000"
 preserveAspectRatio="xMidYMid meet">
<metadata>
Created by potrace 1.11, written by Peter Selinger 2001-2013
</metadata>
<g transform="translate(0.000000,1024.000000) scale(0.100000,-0.100000)"
fill="#000000" stroke="none">
<path d="M698 8608 c-63 -8 -94 -24 -151 -77 -36 -33 -45 -49 -76 -124 -8 -21
-11 -833 -11 -3151 0 -2637 2 -3131 14 -3170 8 -25 12 -46 10 -46 -5 0 39 -92
66 -135 36 -59 70 -96 147 -163 46 -39 169 -93 239 -105 55 -9 1079 -12 4345
-12 l4274 1 55 25 c65 31 111 75 142 138 22 44 23 56 23 276 0 226 0 231 -25
275 -35 64 -92 115 -153 139 -52 20 -70 20 -4151 20 -2255 1 -4102 4 -4105 7
-3 3 -6 1329 -7 2947 l0 2942 -22 48 c-29 62 -91 123 -150 149 -41 17 -71 20
-227 22 -99 1 -206 -1 -237 -6z"/>
<path d="M7675 8030 c-92 -10 -159 -59 -205 -150 -20 -39 -20 -54 -17 -2187
l2 -2148 24 -42 c29 -51 86 -99 142 -118 55 -20 521 -17 541 3 6 6 18 12 26
12 22 0 86 69 112 120 l23 45 -1 2130 c0 1172 -2 2137 -4 2145 -16 67 -76 137
-143 170 -39 19 -63 21 -247 23 -112 1 -225 0 -253 -3z"/>
<path d="M4113 7432 c-54 -22 -107 -71 -135 -125 l-22 -42 0 -1845 c0 -1508 2
-1852 13 -1884 17 -49 73 -111 125 -139 39 -21 53 -22 296 -22 244 0 257 1
296 22 55 29 104 83 126 135 16 40 17 165 17 1870 1 1413 -2 1838 -11 1873 -8
30 -27 62 -54 90 -77 80 -77 80 -359 82 -217 2 -255 0 -292 -15z"/>
<path d="M5910 6282 c-66 -8 -147 -69 -183 -136 l-22 -41 0 -1275 0 -1275 21
-40 c30 -56 71 -94 129 -121 47 -22 58 -23 285 -22 259 1 286 6 349 63 18 16
45 50 59 75 l27 45 0 1265 c0 1392 4 1294 -63 1379 -63 77 -92 85 -352 85
-124 1 -236 0 -250 -2z"/>
<path d="M2352 5094 c-57 -28 -104 -77 -127 -131 -15 -34 -17 -111 -17 -718 0
-766 -4 -720 77 -800 69 -66 96 -72 355 -72 266 -1 299 6 366 73 46 46 60 72
71 133 8 52 8 1265 -1 1334 -10 75 -65 148 -139 183 -51 23 -58 24 -294 23
-236 0 -243 -1 -291 -25z"/>
</g>
</svg>
